<svg width="225" height="225" version="1.1" xmlns="http://www.w3.org/2000/svg" desc="Created with imagetracer.js version 1.2.6" ><path fill="rgb(0,0,0)" stroke="rgb(0,0,0)" stroke-width="1" opacity="0" d="M 0 0 L 225 0 L 225 225 L 0 225 L 0 0 Z M 94 35 L 93 36 L 81 37 L 59 48 Q 42 61 36 84 L 36 107 L 40 120 L 48 133 Q 61 150 88 155 L 107 155 Q 108 153 113 154 L 131 146 L 132 145 L 145 158 Q 147 157 146 160 L 150 162 L 153 166 Q 155 165 154 168 L 157 169 L 158 172 L 177 189 L 180 190 L 186 189 L 190 183 L 189 178 L 145 134 L 153 121 L 158 105 L 158 87 L 156 79 Q 151 63 141 54 Q 133 45 122 40 L 110 36 L 94 35 Z " /><path fill="rgb(0,0,0)" stroke="rgb(0,0,0)" stroke-width="1" opacity="0" d="M 88.5 46 L 104.5 46 L 113.5 48 Q 127.1 53.4 136 63.5 Q 142.5 71 146 81.5 L 147 86.5 L 147 103.5 Q 143.7 121.2 132.5 131 L 130 132.5 Q 130.8 134.8 128.5 134 Q 116 146.5 89.5 145 Q 66.9 141.1 56 125.5 L 47 107.5 L 46 89.5 Q 50.3 66.3 66.5 55 Q 75.4 48.4 88.5 46 Z " /><path fill="rgb(221,221,221)" stroke="rgb(221,221,221)" stroke-width="1" opacity="0.12941176470588237" d="M 93.5 35 L 101 35.5 L 93.5 36 L 93.5 35 Z " /><path fill="rgb(221,221,221)" stroke="rgb(221,221,221)" stroke-width="1" opacity="0.12941176470588237" d="M 84.5 36 L 90 36.5 L 78.5 39 L 78.5 38 L 84.5 36 Z " /><path fill="rgb(221,221,221)" stroke="rgb(221,221,221)" stroke-width="1" opacity="0.12941176470588237" d="M 104.5 36 Q 110.3 35.3 113 37.5 L 110.5 38 Q 109.3 35.8 104.5 37 L 104.5 36 Z " /><path fill="rgb(221,221,221)" stroke="rgb(221,221,221)" stroke-width="1" opacity="0.12941176470588237" d="M 72.5 40 L 74 40.5 L 70.5 42 L 70.5 41 L 72.5 40 Z " /><path fill="rgb(221,221,221)" stroke="rgb(188,190,200)" stroke-width="1" opacity="0.12941176470588237" d="M 120.5 40 L 125 42.5 L 123.5 42 Q 119.8 41.7 120.5 40 Z " /><path fill="rgb(221,221,221)" stroke="rgb(221,221,221)" stroke-width="1" opacity="0.12941176470588237" d="M 66.5 43 L 65.5 45 Q 54.9 49.9 48.5 59 L 58.5 48 L 66.5 43 Z " /><path fill="rgb(221,221,221)" stroke="rgb(221,221,221)" stroke-width="1" opacity="0.12941176470588237" d="M 128.5 44 L 137 50.5 L 133.5 48 Q 128.9 46.8 128.5 44 Z " /><path fill="rgb(221,221,221)" stroke="rgb(221,221,221)" stroke-width="1" opacity="0.12941176470588237" d="M 90.5 45 L 104 45.5 L 90.5 46 L 90.5 45 Z " /><path fill="rgb(221,221,221)" stroke="rgb(221,221,221)" stroke-width="1" opacity="0.12941176470588237" d="M 84.5 46 L 88 46.5 L 84.5 47 L 84.5 46 Z " /><path fill="rgb(221,221,221)" stroke="rgb(221,221,221)" stroke-width="1" opacity="0.12941176470588237" d="M 105.5 46 L 109 46.5 L 105.5 47 L 105.5 46 Z " /><path fill="rgb(221,221,221)" stroke="rgb(221,221,221)" stroke-width="1" opacity="0.12941176470588237" d="M 110.5 47 L 113 47.5 L 110.5 48 L 110.5 47 Z " /><path fill="rgb(221,221,221)" stroke="rgb(221,221,221)" stroke-width="1" opacity="0.12941176470588237" d="M 75.5 49 L 77 49.5 L 74.5 51 L 75.5 49 Z " /><path fill="rgb(221,221,221)" stroke="rgb(221,221,221)" stroke-width="1" opacity="0.12941176470588237" d="M 116.5 49 L 120 50.5 L 118.5 51 L 116.5 49 Z " /><path fill="rgb(221,221,221)" stroke="rgb(221,221,221)" stroke-width="1" opacity="0.12941176470588237" d="M 121.5 51 L 137 63.5 L 141 69.5 L 139 68.5 L 130.5 58 L 122.5 53 L 121.5 51 Z " /><path fill="rgb(221,221,221)" stroke="rgb(221,221,221)" stroke-width="1" opacity="0.12941176470588237" d="M 70.5 52 L 69.5 54 L 67.5 55 L 68.5 53 L 70.5 52 Z " /><path fill="rgb(221,221,221)" stroke="rgb(221,221,221)" stroke-width="1" opacity="0.12941176470588237" d="M 139.5 52 L 140.5 54 L 139.5 52 Z " /><path fill="rgb(221,221,221)" stroke="rgb(221,221,221)" stroke-width="1" opacity="0.12941176470588237" d="M 65.5 55 L 55.5 66 L 65.5 55 Z " /><path fill="rgb(221,221,221)" stroke="rgb(221,221,221)" stroke-width="1" opacity="0.12941176470588237" d="M 142.5 56 L 145.5 60 L 142.5 56 Z " /><path fill="rgb(221,221,221)" stroke="rgb(221,221,221)" stroke-width="1" opacity="0.12941176470588237" d="M 47.5 60 L 46.5 62 L 47.5 60 Z " /><path fill="rgb(221,221,221)" stroke="rgb(221,221,221)" stroke-width="1" opacity="0.12941176470588237" d="M 146.5 61 L 150 65.5 L 148 64.5 L 146.5 61 Z " /><path fill="rgb(221,221,221)" stroke="rgb(221,221,221)" stroke-width="1" opacity="0.12941176470588237" d="M 45.5 63 L 44.5 65 L 45.5 63 Z " /><path fill="rgb(221,221,221)" stroke="rgb(221,221,221)" stroke-width="1" opacity="0.12941176470588237" d="M 54.5 67 L 54 68.5 L 49.5 77 L 49 75.5 L 54.5 67 Z " /><path fill="rgb(221,221,221)" stroke="rgb(221,221,221)" stroke-width="1" opacity="0.12941176470588237" d="M 150.5 67 L 153 71.5 L 152 71.5 L 150.5 67 Z " /><path fill="rgb(221,221,221)" stroke="rgb(221,221,221)" stroke-width="1" opacity="0.12941176470588237" d="M 42.5 68 L 42 69.5 L 40.5 73 L 40 71.5 L 42.5 68 Z " /><path fill="rgb(221,221,221)" stroke="rgb(221,221,221)" stroke-width="1" opacity="0.12941176470588237" d="M 141.5 71 L 144 75.5 L 143 75.5 L 141.5 71 Z " /><path fill="rgb(221,221,221)" stroke="rgb(221,221,221)" stroke-width="1" opacity="0.12941176470588237" d="M 154.5 76 L 156 80.5 L 155 80.5 L 154.5 76 Z " /><path fill="rgb(221,221,221)" stroke="rgb(221,221,221)" stroke-width="1" opacity="0.12941176470588237" d="M 38.5 77 L 39 78.5 L 36.5 89 L 36 83.5 L 38.5 77 Z " /><path fill="rgb(221,221,221)" stroke="rgb(221,221,221)" stroke-width="1" opacity="0.12941176470588237" d="M 146.5 82 L 147 85.5 L 146 85.5 L 146.5 82 Z " /><path fill="rgb(221,221,221)" stroke="rgb(221,221,221)" stroke-width="1" opacity="0.12941176470588237" d="M 156.5 82 L 158 86.5 L 158 104.5 L 155.5 113 L 155 110.5 L 157 104.5 L 157 86.5 L 156.5 82 Z " /><path fill="rgb(221,221,221)" stroke="rgb(221,221,221)" stroke-width="1" opacity="0.12941176470588237" d="M 46.5 84 L 47 88.5 L 46 88.5 L 46.5 84 Z " /><path fill="rgb(221,221,221)" stroke="rgb(221,221,221)" stroke-width="1" opacity="0.12941176470588237" d="M 147.5 87 L 148 103.5 L 146.5 108 L 146 104.5 L 147 103.5 L 147.5 87 Z " /><path fill="rgb(221,221,221)" stroke="rgb(221,221,221)" stroke-width="1" opacity="0.12941176470588237" d="M 45.5 91 L 46 99.5 L 45 99.5 L 45.5 91 Z " /><path fill="rgb(221,221,221)" stroke="rgb(221,221,221)" stroke-width="1" opacity="0.12941176470588237" d="M 36.5 102 L 37 106.5 L 36 106.5 L 36.5 102 Z " /><path fill="rgb(221,221,221)" stroke="rgb(221,221,221)" stroke-width="1" opacity="0.12941176470588237" d="M 46.5 102 L 47 106.5 L 46 106.5 L 46.5 102 Z " /><path fill="rgb(221,221,221)" stroke="rgb(221,221,221)" stroke-width="1" opacity="0.12941176470588237" d="M 37.5 108 L 38 110.5 L 37 110.5 L 37.5 108 Z " /><path fill="rgb(221,221,221)" stroke="rgb(221,221,221)" stroke-width="1" opacity="0.12941176470588237" d="M 145.5 110 L 146 111.5 L 144.5 114 L 144 112.5 L 145.5 110 Z " /><path fill="rgb(221,221,221)" stroke="rgb(221,221,221)" stroke-width="1" opacity="0.12941176470588237" d="M 49.5 114 Q 54.9 127.1 65.5 135 L 69 137.5 L 66.5 136 L 55 125.5 L 49 115.5 L 49.5 114 Z " /><path fill="rgb(221,221,221)" stroke="rgb(221,221,221)" stroke-width="1" opacity="0.12941176470588237" d="M 143.5 115 L 144 116.5 L 142 117.5 L 143.5 115 Z " /><path fill="rgb(221,221,221)" stroke="rgb(221,221,221)" stroke-width="1" opacity="0.12941176470588237" d="M 40.5 118 L 43 122.5 L 41 121.5 L 40.5 118 Z " /><path fill="rgb(221,221,221)" stroke="rgb(221,221,221)" stroke-width="1" opacity="0.12941176470588237" d="M 152.5 119 L 153 120.5 L 151 121.5 L 152.5 119 Z " /><path fill="rgb(221,221,221)" stroke="rgb(221,221,221)" stroke-width="1" opacity="0.12941176470588237" d="M 140.5 121 L 140 122.5 L 131.5 133 L 130 132.5 L 135 128.5 L 140.5 121 Z " /><path fill="rgb(221,221,221)" stroke="rgb(221,221,221)" stroke-width="1" opacity="0.12941176470588237" d="M 43.5 124 Q 48.8 134.2 57.5 141 L 64 145.5 L 62.5 145 L 48 132.5 L 43.5 124 Z " /><path fill="rgb(221,221,221)" stroke="rgb(221,221,221)" stroke-width="1" opacity="0.12941176470588237" d="M 149.5 125 L 149 126.5 L 146.5 130 L 148 127.5 L 149.5 125 Z " /><path fill="rgb(221,221,221)" stroke="rgb(221,221,221)" stroke-width="1" opacity="0.12941176470588237" d="M 145.5 131 L 145 132.5 L 189 178.5 L 188 178.5 L 144 132.5 L 145.5 131 Z " /><path fill="rgb(221,221,221)" stroke="rgb(221,221,221)" stroke-width="1" opacity="0.12941176470588237" d="M 128.5 134 L 126.5 137 L 124.5 138 L 125.5 136 L 128.5 134 Z " /><path fill="rgb(221,221,221)" stroke="rgb(221,221,221)" stroke-width="1" opacity="0.12941176470588237" d="M 122.5 138 L 121.5 140 L 116.5 142 L 116.5 141 L 122.5 138 Z " /><path fill="rgb(221,221,221)" stroke="rgb(221,221,221)" stroke-width="1" opacity="0.12941176470588237" d="M 78.5 142 L 84 143.5 L 81.5 144 L 78.5 143 L 78.5 142 Z " /><path fill="rgb(221,221,221)" stroke="rgb(221,221,221)" stroke-width="1" opacity="0.12941176470588237" d="M 109.5 143 L 112 143.5 L 109.5 144 L 109.5 143 Z " /><path fill="rgb(221,221,221)" stroke="rgb(221,221,221)" stroke-width="1" opacity="0.12941176470588237" d="M 85.5 144 L 89 144.5 L 85.5 145 L 85.5 144 Z " /><path fill="rgb(221,221,221)" stroke="rgb(221,221,221)" stroke-width="1" opacity="0.12941176470588237" d="M 105.5 144 L 108 144.5 L 105.5 145 L 105.5 144 Z " /><path fill="rgb(221,221,221)" stroke="rgb(221,221,221)" stroke-width="1" opacity="0.12941176470588237" d="M 131.5 144 L 144.5 158 L 131.5 145 L 130.5 146 L 128.5 147 L 129.5 145 L 131.5 144 Z " /><path fill="rgb(221,221,221)" stroke="rgb(221,221,221)" stroke-width="1" opacity="0.12941176470588237" d="M 91.5 145 L 102 145.5 L 91.5 146 L 91.5 145 Z " /><path fill="rgb(221,221,221)" stroke="rgb(221,221,221)" stroke-width="1" opacity="0.12941176470588237" d="M 65.5 146 L 72 149.5 L 70.5 150 Q 65.9 148.8 65.5 146 Z " /><path fill="rgb(221,221,221)" stroke="rgb(221,221,221)" stroke-width="1" opacity="0.12941176470588237" d="M 126.5 147 L 125.5 149 L 122.5 150 L 122.5 149 L 126.5 147 Z " /><path fill="rgb(221,221,221)" stroke="rgb(221,221,221)" stroke-width="1" opacity="0.12941176470588237" d="M 119.5 150 L 121 150.5 L 117.5 152 L 117.5 151 L 119.5 150 Z " /><path fill="rgb(221,221,221)" stroke="rgb(221,221,221)" stroke-width="1" opacity="0.12941176470588237" d="M 75.5 151 L 80 152.5 L 77.5 153 L 75.5 151 Z " /><path fill="rgb(221,221,221)" stroke="rgb(221,221,221)" stroke-width="1" opacity="0.12941176470588237" d="M 81.5 153 L 84 153.5 L 81.5 154 L 81.5 153 Z " /><path fill="rgb(221,221,221)" stroke="rgb(221,221,221)" stroke-width="1" opacity="0.12941176470588237" d="M 110.5 153 L 113 153.5 L 110.5 154 L 110.5 153 Z " /><path fill="rgb(221,221,221)" stroke="rgb(221,221,221)" stroke-width="1" opacity="0.12941176470588237" d="M 87.5 154 L 91 154.5 L 87.5 155 L 87.5 154 Z " /><path fill="rgb(221,221,221)" stroke="rgb(221,221,221)" stroke-width="1" opacity="0.12941176470588237" d="M 102.5 154 L 107 154.5 L 102.5 155 L 102.5 154 Z " /><path fill="rgb(221,221,221)" stroke="rgb(221,221,221)" stroke-width="1" opacity="0.12941176470588237" d="M 146.5 159 L 148.5 162 L 146.5 159 Z " /><path fill="rgb(221,221,221)" stroke="rgb(221,221,221)" stroke-width="1" opacity="0.12941176470588237" d="M 150.5 163 L 152.5 166 L 150.5 163 Z " /><path fill="rgb(221,221,221)" stroke="rgb(221,221,221)" stroke-width="1" opacity="0.12941176470588237" d="M 154.5 167 L 155.5 169 L 154.5 167 Z " /><path fill="rgb(221,221,221)" stroke="rgb(221,221,221)" stroke-width="1" opacity="0.12941176470588237" d="M 158.5 171 L 178 188.5 L 176.5 189 L 158.5 171 Z " /><path fill="rgb(221,221,221)" stroke="rgb(221,221,221)" stroke-width="1" opacity="0.12941176470588237" d="M 189.5 180 L 190 182.5 L 189 182.5 L 189.5 180 Z " /><path fill="rgb(221,221,221)" stroke="rgb(221,221,221)" stroke-width="1" opacity="0.12941176470588237" d="M 187.5 186 L 185.5 189 L 184 188.5 L 187.5 186 Z " /><path fill="rgb(221,221,221)" stroke="rgb(221,221,221)" stroke-width="1" opacity="0.12941176470588237" d="M 179.5 189 L 183 189.5 L 179.5 190 L 179.5 189 Z " /><path fill="rgb(118,118,118)" stroke="rgb(118,118,118)" stroke-width="1" opacity="0.5333333333333333" d="M 90.5 36 L 104 36.5 L 90.5 37 L 90.5 36 Z " /><path fill="rgb(118,118,118)" stroke="rgb(118,118,118)" stroke-width="1" opacity="0.5333333333333333" d="M 107.5 37 L 110 37.5 L 107.5 38 L 107.5 37 Z " /><path fill="rgb(118,118,118)" stroke="rgb(118,118,118)" stroke-width="1" opacity="0.5333333333333333" d="M 67.5 43 L 66.5 45 L 67.5 43 Z " /><path fill="rgb(118,118,118)" stroke="rgb(118,118,118)" stroke-width="1" opacity="0.5333333333333333" d="M 95.5 44 L 98 44.5 L 95.5 45 L 95.5 44 Z " /><path fill="rgb(118,118,118)" stroke="rgb(118,118,118)" stroke-width="1" opacity="0.5333333333333333" d="M 127.5 44 L 128.5 46 L 127.5 44 Z " /><path fill="rgb(118,118,118)" stroke="rgb(118,118,118)" stroke-width="1" opacity="0.5333333333333333" d="M 87.5 45 L 90 45.5 L 87.5 46 L 87.5 45 Z " /><path fill="rgb(118,118,118)" stroke="rgb(118,118,118)" stroke-width="1" opacity="0.5333333333333333" d="M 104.5 45 L 107 45.5 L 104.5 46 L 104.5 45 Z " /><path fill="rgb(118,118,118)" stroke="rgb(118,118,118)" stroke-width="1" opacity="0.5333333333333333" d="M 133.5 48 L 135.5 51 L 133.5 48 Z " /><path fill="rgb(118,118,118)" stroke="rgb(118,118,118)" stroke-width="1" opacity="0.5333333333333333" d="M 58.5 49 L 56.5 52 L 58.5 49 Z " /><path fill="rgb(118,118,118)" stroke="rgb(118,118,118)" stroke-width="1" opacity="0.5333333333333333" d="M 74.5 49 L 73.5 51 L 74.5 49 Z " /><path fill="rgb(118,118,118)" stroke="rgb(118,118,118)" stroke-width="1" opacity="0.5333333333333333" d="M 137.5 51 L 141.5 56 L 137.5 51 Z " /><path fill="rgb(118,118,118)" stroke="rgb(118,118,118)" stroke-width="1" opacity="0.5333333333333333" d="M 124.5 52 L 125.5 54 L 124.5 52 Z " /><path fill="rgb(118,118,118)" stroke="rgb(118,118,118)" stroke-width="1" opacity="0.5333333333333333" d="M 54.5 53 L 53.5 55 L 54.5 53 Z " /><path fill="rgb(118,118,118)" stroke="rgb(118,118,118)" stroke-width="1" opacity="0.5333333333333333" d="M 67.5 53 L 66.5 55 L 67.5 53 Z " /><path fill="rgb(118,118,118)" stroke="rgb(118,118,118)" stroke-width="1" opacity="0.5333333333333333" d="M 128.5 55 L 129.5 57 L 128.5 55 Z " /><path fill="rgb(118,118,118)" stroke="rgb(118,118,118)" stroke-width="1" opacity="0.5333333333333333" d="M 63.5 56 L 56.5 64 L 63.5 56 Z " /><path fill="rgb(118,118,118)" stroke="rgb(118,118,118)" stroke-width="1" opacity="0.5333333333333333" d="M 50.5 57 L 48.5 60 L 50.5 57 Z " /><path fill="rgb(118,118,118)" stroke="rgb(118,118,118)" stroke-width="1" opacity="0.5333333333333333" d="M 143.5 58 L 145.5 61 L 143.5 58 Z " /><path fill="rgb(118,118,118)" stroke="rgb(118,118,118)" stroke-width="1" opacity="0.5333333333333333" d="M 47.5 61 L 46.5 63 L 47.5 61 Z " /><path fill="rgb(118,118,118)" stroke="rgb(118,118,118)" stroke-width="1" opacity="0.5333333333333333" d="M 45.5 64 L 44.5 66 L 45.5 64 Z " /><path fill="rgb(118,118,118)" stroke="rgb(118,118,118)" stroke-width="1" opacity="0.5333333333333333" d="M 137.5 64 L 138.5 66 L 137.5 64 Z " /><path fill="rgb(118,118,118)" stroke="rgb(118,118,118)" stroke-width="1" opacity="0.5333333333333333" d="M 54.5 66 L 53.5 68 L 54.5 66 Z " /><path fill="rgb(118,118,118)" stroke="rgb(118,118,118)" stroke-width="1" opacity="0.5333333333333333" d="M 155.5 81 L 156 83.5 L 155 83.5 L 155.5 81 Z " /><path fill="rgb(118,118,118)" stroke="rgb(118,118,118)" stroke-width="1" opacity="0.5333333333333333" d="M 37.5 83 L 38 85.5 L 37 85.5 L 37.5 83 Z " /><path fill="rgb(118,118,118)" stroke="rgb(118,118,118)" stroke-width="1" opacity="0.5333333333333333" d="M 156.5 86 L 157 88.5 L 156 88.5 L 156.5 86 Z " /><path fill="rgb(118,118,118)" stroke="rgb(118,118,118)" stroke-width="1" opacity="0.5333333333333333" d="M 45.5 87 L 46 90.5 L 45 90.5 L 45.5 87 Z " /><path fill="rgb(118,118,118)" stroke="rgb(118,118,118)" stroke-width="1" opacity="0.5333333333333333" d="M 36.5 89 L 37 101.5 L 36 101.5 L 36.5 89 Z " /><path fill="rgb(118,118,118)" stroke="rgb(118,118,118)" stroke-width="1" opacity="0.5333333333333333" d="M 148.5 90 L 149 100.5 L 148 100.5 L 148.5 90 Z " /><path fill="rgb(118,118,118)" stroke="rgb(118,118,118)" stroke-width="1" opacity="0.5333333333333333" d="M 45.5 100 L 46 103.5 L 45 103.5 L 45.5 100 Z " /><path fill="rgb(118,118,118)" stroke="rgb(118,118,118)" stroke-width="1" opacity="0.5333333333333333" d="M 156.5 101 L 157 104.5 L 156 104.5 L 156.5 101 Z " /><path fill="rgb(118,118,118)" stroke="rgb(118,118,118)" stroke-width="1" opacity="0.5333333333333333" d="M 37.5 105 L 38 107.5 L 37 107.5 L 37.5 105 Z " /><path fill="rgb(118,118,118)" stroke="rgb(118,118,118)" stroke-width="1" opacity="0.5333333333333333" d="M 143.5 117 L 142.5 119 L 143.5 117 Z " /><path fill="rgb(118,118,118)" stroke="rgb(118,118,118)" stroke-width="1" opacity="0.5333333333333333" d="M 53.5 123 L 54.5 125 L 53.5 123 Z " /><path fill="rgb(118,118,118)" stroke="rgb(118,118,118)" stroke-width="1" opacity="0.5333333333333333" d="M 138.5 125 L 136.5 128 L 138.5 125 Z " /><path fill="rgb(118,118,118)" stroke="rgb(118,118,118)" stroke-width="1" opacity="0.5333333333333333" d="M 56.5 127 L 62.5 134 L 56.5 127 Z " /><path fill="rgb(118,118,118)" stroke="rgb(118,118,118)" stroke-width="1" opacity="0.5333333333333333" d="M 46.5 128 L 47.5 130 L 46.5 128 Z " /><path fill="rgb(118,118,118)" stroke="rgb(118,118,118)" stroke-width="1" opacity="0.5333333333333333" d="M 145.5 130 L 144 132.5 L 168 157.5 L 143 133.5 L 145.5 130 Z " /><path fill="rgb(118,118,118)" stroke="rgb(118,118,118)" stroke-width="1" opacity="0.5333333333333333" d="M 49.5 132 L 57.5 141 L 49.5 132 Z " /><path fill="rgb(118,118,118)" stroke="rgb(118,118,118)" stroke-width="1" opacity="0.5333333333333333" d="M 130.5 133 L 128.5 136 L 130.5 133 Z " /><path fill="rgb(118,118,118)" stroke="rgb(118,118,118)" stroke-width="1" opacity="0.5333333333333333" d="M 66.5 136 L 67.5 138 L 66.5 136 Z " /><path fill="rgb(118,118,118)" stroke="rgb(118,118,118)" stroke-width="1" opacity="0.5333333333333333" d="M 123.5 138 L 122.5 140 L 123.5 138 Z " /><path fill="rgb(118,118,118)" stroke="rgb(118,118,118)" stroke-width="1" opacity="0.5333333333333333" d="M 71.5 139 L 74 140.5 L 72.5 141 L 71.5 139 Z " /><path fill="rgb(118,118,118)" stroke="rgb(118,118,118)" stroke-width="1" opacity="0.5333333333333333" d="M 60.5 142 L 61.5 144 L 60.5 142 Z " /><path fill="rgb(118,118,118)" stroke="rgb(118,118,118)" stroke-width="1" opacity="0.5333333333333333" d="M 108.5 144 L 111 144.5 L 108.5 145 L 108.5 144 Z " /><path fill="rgb(118,118,118)" stroke="rgb(118,118,118)" stroke-width="1" opacity="0.5333333333333333" d="M 87.5 145 L 91 145.5 L 87.5 146 L 87.5 145 Z " /><path fill="rgb(118,118,118)" stroke="rgb(118,118,118)" stroke-width="1" opacity="0.5333333333333333" d="M 102.5 145 L 106 145.5 L 102.5 146 L 102.5 145 Z " /><path fill="rgb(118,118,118)" stroke="rgb(118,118,118)" stroke-width="1" opacity="0.5333333333333333" d="M 128.5 145 L 127.5 147 L 128.5 145 Z " /><path fill="rgb(118,118,118)" stroke="rgb(118,118,118)" stroke-width="1" opacity="0.5333333333333333" d="M 134.5 146 L 156.5 169 L 134.5 146 Z " /><path fill="rgb(118,118,118)" stroke="rgb(118,118,118)" stroke-width="1" opacity="0.5333333333333333" d="M 107.5 153 L 110 153.5 L 107.5 154 L 107.5 153 Z " /><path fill="rgb(118,118,118)" stroke="rgb(118,118,118)" stroke-width="1" opacity="0.5333333333333333" d="M 91.5 154 L 102 154.5 L 91.5 155 L 91.5 154 Z " /><path fill="rgb(118,118,118)" stroke="rgb(118,118,118)" stroke-width="1" opacity="0.5333333333333333" d="M 188.5 179 L 189 183.5 L 188 183.5 L 188.5 179 Z " /><path fill="rgb(118,118,118)" stroke="rgb(118,118,118)" stroke-width="1" opacity="0.5333333333333333" d="M 187.5 185 L 185.5 188 L 187.5 185 Z " /><path fill="rgb(118,118,118)" stroke="rgb(118,118,118)" stroke-width="1" opacity="0.5333333333333333" d="M 175.5 186 L 176.5 188 L 175.5 186 Z " /><path fill="rgb(26,26,26)" stroke="rgb(26,26,26)" stroke-width="1" opacity="0.9176470588235294" d="M 90.5 44 L 95 44.5 L 90.5 45 L 90.5 44 Z " /><path fill="rgb(26,26,26)" stroke="rgb(26,26,26)" stroke-width="1" opacity="0.9176470588235294" d="M 98.5 44 L 103 44.5 L 98.5 45 L 98.5 44 Z " /><path fill="rgb(26,26,26)" stroke="rgb(26,26,26)" stroke-width="1" opacity="0.9176470588235294" d="M 60.5 48 L 58.5 51 L 60.5 48 Z " /><path fill="rgb(26,26,26)" stroke="rgb(26,26,26)" stroke-width="1" opacity="0.9176470588235294" d="M 138.5 53 L 139.5 55 L 138.5 53 Z " /><path fill="rgb(26,26,26)" stroke="rgb(26,26,26)" stroke-width="1" opacity="0.9176470588235294" d="M 52.5 55 L 51.5 57 L 52.5 55 Z " /><path fill="rgb(26,26,26)" stroke="rgb(26,26,26)" stroke-width="1" opacity="0.9176470588235294" d="M 131.5 57 L 137.5 64 L 131.5 57 Z " /><path fill="rgb(26,26,26)" stroke="rgb(26,26,26)" stroke-width="1" opacity="0.9176470588235294" d="M 147.5 64 L 148.5 66 L 147.5 64 Z " /><path fill="rgb(26,26,26)" stroke="rgb(26,26,26)" stroke-width="1" opacity="0.9176470588235294" d="M 139.5 66 L 140.5 68 L 139.5 66 Z " /><path fill="rgb(26,26,26)" stroke="rgb(26,26,26)" stroke-width="1" opacity="0.9176470588235294" d="M 156.5 89 L 157 91.5 L 156 91.5 L 156.5 89 Z " /><path fill="rgb(26,26,26)" stroke="rgb(26,26,26)" stroke-width="1" opacity="0.9176470588235294" d="M 44.5 91 L 45 99.5 L 44 99.5 L 44.5 91 Z " /><path fill="rgb(26,26,26)" stroke="rgb(26,26,26)" stroke-width="1" opacity="0.9176470588235294" d="M 156.5 98 L 157 100.5 L 156 100.5 L 156.5 98 Z " /><path fill="rgb(26,26,26)" stroke="rgb(26,26,26)" stroke-width="1" opacity="0.9176470588235294" d="M 148.5 125 L 147.5 127 L 148.5 125 Z " /><path fill="rgb(26,26,26)" stroke="rgb(26,26,26)" stroke-width="1" opacity="0.9176470588235294" d="M 136.5 128 L 135.5 130 L 136.5 128 Z " /><path fill="rgb(26,26,26)" stroke="rgb(26,26,26)" stroke-width="1" opacity="0.9176470588235294" d="M 48.5 130 L 50.5 133 L 48.5 130 Z " /><path fill="rgb(26,26,26)" stroke="rgb(26,26,26)" stroke-width="1" opacity="0.9176470588235294" d="M 133.5 131 L 131.5 134 L 133.5 131 Z " /><path fill="rgb(26,26,26)" stroke="rgb(26,26,26)" stroke-width="1" opacity="0.9176470588235294" d="M 63.5 134 L 65.5 137 L 63.5 134 Z " /><path fill="rgb(26,26,26)" stroke="rgb(26,26,26)" stroke-width="1" opacity="0.9176470588235294" d="M 127.5 136 L 126.5 138 L 127.5 136 Z " /><path fill="rgb(26,26,26)" stroke="rgb(26,26,26)" stroke-width="1" opacity="0.9176470588235294" d="M 62.5 143 L 63.5 145 L 62.5 143 Z " /><path fill="rgb(26,26,26)" stroke="rgb(26,26,26)" stroke-width="1" opacity="0.9176470588235294" d="M 168.5 158 L 169.5 160 L 168.5 158 Z " /><path fill="rgb(26,26,26)" stroke="rgb(26,26,26)" stroke-width="1" opacity="0.9176470588235294" d="M 167.5 161 L 171.5 161 L 174 163.5 L 171 164.5 L 174 165.5 L 169.5 169 L 165 162.5 L 167 162.5 L 167.5 161 Z M 168 163 L 167 165 L 170 168 L 171 167 L 168 163 Z " /><path fill="rgb(26,26,26)" stroke="rgb(26,26,26)" stroke-width="1" opacity="0.9176470588235294" d="M 163.5 164 L 163.5 166 Q 166.8 164.9 166 167.5 L 167.5 170 L 163 173.5 L 171.5 183 L 159 170.5 L 160 169.5 L 159 166 L 161.5 167 L 163.5 164 Z M 166 168 L 163 170 L 166 170 L 166 168 Z M 161 170 L 162 172 Q 163 169 161 170 Z " /><path fill="rgb(26,26,26)" stroke="rgb(26,26,26)" stroke-width="1" opacity="0.9176470588235294" d="M 175.5 165 L 179.5 170 L 175.5 165 Z " /><path fill="rgb(26,26,26)" stroke="rgb(26,26,26)" stroke-width="1" opacity="0.9176470588235294" d="M 155.5 166 L 157.5 169 L 155.5 166 Z " /><path fill="rgb(26,26,26)" stroke="rgb(26,26,26)" stroke-width="1" opacity="0.9176470588235294" d="M 181.5 171 L 183.5 174 L 181.5 171 Z " /><path fill="rgb(26,26,26)" stroke="rgb(26,26,26)" stroke-width="1" opacity="0.9176470588235294" d="M 185.5 175 L 186.5 177 L 185.5 175 Z " /><path fill="rgb(26,26,26)" stroke="rgb(26,26,26)" stroke-width="1" opacity="0.9176470588235294" d="M 173.5 184 L 174.5 186 L 173.5 184 Z " /><path fill="rgb(26,26,26)" stroke="rgb(26,26,26)" stroke-width="1" opacity="0.9176470588235294" d="M 179.5 188 L 182 188.5 L 179.5 189 L 179.5 188 Z " /><path fill="rgb(0,0,0)" stroke="rgb(0,0,0)" stroke-width="1" opacity="0.996078431372549" d="M 88.5 37 L 104.5 37 L 117.5 40 L 138 52 L 139.5 55 L 142 56.5 L 150 67.5 L 154 76.5 L 157 97.5 L 154 114.5 L 150 123.5 L 143 132.5 L 143 135 L 146 136.5 Q 145.3 138.8 147.5 138 L 150 142 L 151.5 142 L 179.5 170 L 181 170 L 183.5 174 Q 185.8 173.3 185 175.5 Q 189.3 176.8 188 183.5 L 185.5 187 L 178.5 188 L 159.5 170 L 158 170 L 155.5 166 L 153 164.5 Q 153.8 162.3 151.5 163 L 131.5 143 L 129.5 145 Q 119.3 151.3 105.5 154 L 88.5 154 L 73.5 150 L 59 142 Q 60.1 139.3 57.5 140 Q 46.1 130.4 40 115.5 L 37 102.5 L 37 88.5 Q 41.3 63.8 57.5 51 L 75.5 40 L 88.5 37 Z M 91 44 L 79 47 L 65 55 Q 54 63 48 76 L 44 92 Q 44 114 55 127 L 66 137 L 86 146 L 108 146 L 112 145 Q 125 141 134 132 Q 133 129 136 130 L 146 114 L 149 103 L 148 84 Q 145 71 138 64 Q 130 54 118 48 L 103 44 L 91 44 Z M 168 161 L 167 163 L 172 167 L 174 166 L 172 165 L 172 164 L 170 161 L 168 161 Z M 163 165 L 163 168 Q 162 170 165 169 L 166 166 L 163 165 Z M 168 165 L 167 167 L 169 168 L 168 165 Z M 159 166 L 160 169 L 162 172 Q 164 175 166 171 L 164 170 L 162 168 L 159 166 Z M 167 168 Q 165 171 168 170 L 167 168 Z " /></svg>